<svg xmlns="http://www.w3.org/2000/svg" width="256" height="256" viewBox="0 0 100 100"><rect width="100" height="100" rx="50" fill="#18e197"></rect><path fill="#fff" d="M40.25 75.62L40.60 75.62Q39.97 78.42 36.26 79.05L36.26 79.05Q32.83 79.68 29.75 78.28L29.75 78.28Q26.32 76.81 26.74 74.15L26.74 74.15Q26.32 70.09 31.01 56.51L31.01 56.51Q38.01 36.14 45.01 27.39L45.01 27.39Q46.83 25.15 48.13 24.49Q49.42 23.82 51.10 23.26Q52.78 22.70 54.60 22.21L54.60 22.21Q58.24 21.23 61.50 20.85Q64.75 20.46 67.34 21.62Q69.93 22.77 71.37 25.01Q72.80 27.25 73.15 30.30Q73.50 33.34 72.94 36.67Q72.38 39.99 70.91 43.39Q69.44 46.78 67.20 49.72L67.20 49.72Q62.30 56.16 55.72 58.05L55.72 58.05L56.42 59.24Q57.33 60.64 58.63 62.32Q59.92 64.00 61.22 65.75Q62.51 67.50 63.56 69.25Q64.61 71.00 65.10 72.54L65.10 72.54Q66.22 75.97 63.35 77.51L63.35 77.51Q61.04 78.91 59.71 78.21L59.71 78.21Q59.15 77.86 58.59 77.34Q58.03 76.81 57.05 76.46L57.05 76.46Q52.92 77.65 50.75 74.36L50.75 74.36Q49.42 72.26 48.72 70.51Q48.02 68.76 47.53 67.57L47.53 67.57Q46.27 64.98 44.66 63.09L44.66 63.09Q43.89 64.98 42.91 67.92L42.91 67.92Q41.72 71.63 40.25 75.62L40.25 75.62ZM54.74 34.88L54.74 34.88Q53.41 37.89 52.92 39.08L52.92 39.08Q51.94 41.46 50.75 44.33L50.75 44.33Q50.54 45.87 50.40 46.50L50.40 46.50L51.38 45.52L52.57 44.96Q53.83 44.26 54.88 43.70Q55.93 43.14 56.77 42.30L56.77 42.30Q58.38 40.69 59.57 37.05L59.57 37.05Q59.57 36.35 59.82 35.65Q60.06 34.95 60.13 34.25L60.13 34.25Q60.41 32.71 58.87 32.08L58.87 32.08Q57.47 31.94 55.37 34.39L55.37 34.39Q54.95 34.88 54.74 34.88Z"></path></svg>