<svg width="254" height="189" viewBox="0 0 254 189" fill="none" xmlns="http://www.w3.org/2000/svg">
<path d="M34.4 63.144C34.112 64.424 33.12 65.208 31.424 65.496C29.856 65.784 28.368 65.608 26.96 64.968C25.392 64.296 24.704 63.352 24.896 62.136C24.704 60.28 25.68 56.248 27.824 50.04C31.024 40.728 34.224 34.072 37.424 30.072C38.256 29.048 38.96 28.392 39.536 28.104C40.144 27.784 40.832 27.496 41.6 27.24C42.368 26.984 43.168 26.744 44 26.52C45.664 26.072 47.232 25.768 48.704 25.608C50.208 25.416 51.552 25.592 52.736 26.136C53.92 26.648 54.832 27.416 55.472 28.44C56.144 29.464 56.56 30.68 56.72 32.088C56.88 33.464 56.832 34.92 56.576 36.456C56.32 37.96 55.856 39.496 55.184 41.064C54.512 42.6 53.664 44.04 52.64 45.384C50.4 48.328 47.776 50.232 44.768 51.096L45.248 51.912C45.664 52.552 46.16 53.256 46.736 54.024C47.344 54.792 47.936 55.576 48.512 56.376C49.12 57.176 49.664 57.976 50.144 58.776C50.624 59.576 50.976 60.328 51.2 61.032C51.712 62.6 51.312 63.736 50 64.44C48.944 65.08 48.112 65.24 47.504 64.92C47.248 64.76 46.992 64.552 46.736 64.296C46.48 64.072 46.128 63.88 45.68 63.72C43.792 64.264 42.352 63.784 41.36 62.28C40.752 61.32 40.288 60.44 39.968 59.64C39.648 58.84 39.376 58.168 39.152 57.624C38.576 56.44 37.92 55.416 37.184 54.552C36.832 55.416 36.432 56.52 35.984 57.864C35.44 59.56 34.832 61.32 34.16 63.144H34.4ZM44.096 35.208C43.488 36.584 43.072 37.544 42.848 38.088C42.4 39.176 41.904 40.376 41.36 41.688C41.264 42.392 41.184 42.888 41.12 43.176L41.792 42.504L42.608 42.12C43.184 41.8 43.712 41.512 44.192 41.256C44.672 41 45.104 40.68 45.488 40.296C46.224 39.56 46.864 38.36 47.408 36.696C47.408 36.376 47.456 36.056 47.552 35.736C47.68 35.416 47.76 35.096 47.792 34.776C47.92 34.072 47.632 33.576 46.928 33.288C46.288 33.224 45.488 33.752 44.528 34.872C44.336 35.096 44.192 35.208 44.096 35.208Z" fill="#86BA90"/>
<path d="M84.4062 60.2656C80.9219 61.9219 77.625 62.75 74.5156 62.75C72.1562 62.75 70.0469 62.1641 68.1875 60.9922C66.3281 59.8203 64.8359 58.1484 63.7109 55.9766C62.6016 53.7891 62.0469 51.4531 62.0469 48.9688C62.0469 46.5781 62.5781 44.2812 63.6406 42.0781C64.7031 39.875 66.1875 38.1641 68.0938 36.9453C70 35.7109 72.125 35.0938 74.4688 35.0938C77.5781 35.0938 80.0703 36.2031 81.9453 38.4219C83.8359 40.6406 84.7812 44.0625 84.7812 48.6875V49.625H66.7344C66.7344 51.4375 67.1094 53.0938 67.8594 54.5938C68.625 56.0938 69.625 57.2188 70.8594 57.9688C72.0938 58.7188 73.5 59.0938 75.0781 59.0938C77.8906 59.0938 81 58.1562 84.4062 56.2812V60.2656ZM66.9922 46.3672H80.0469V45.7344C80.0469 43.5938 79.5234 41.8906 78.4766 40.625C77.4297 39.3594 76.0312 38.7266 74.2812 38.7266C72.5156 38.7266 70.9844 39.375 69.6875 40.6719C68.4062 41.9531 67.5078 43.8516 66.9922 46.3672ZM108.664 56.1172C107.336 58.3047 105.734 59.9531 103.859 61.0625C102 62.1719 100.289 62.7266 98.7266 62.7266C96.5391 62.7266 94.5703 61.7812 92.8203 59.8906C91.0859 58 90.2188 55.1328 90.2188 51.2891C90.2188 48.2578 90.7969 45.5547 91.9531 43.1797C93.1094 40.7891 94.6562 38.9062 96.5938 37.5312C98.5312 36.1406 100.93 35.4453 103.789 35.4453C104.617 35.4453 105.867 35.5312 107.539 35.7031C107.789 35.7344 108.164 35.7734 108.664 35.8203H113.047V54.3125C113.047 57.4688 113.375 60.0312 114.031 62H109.484C109.141 60.5625 108.867 58.6016 108.664 56.1172ZM108.664 50.9375V39.7109C107.117 39.3047 105.68 39.1016 104.352 39.1016C101.664 39.1016 99.4219 40.1406 97.625 42.2188C95.8438 44.2969 94.9531 47.125 94.9531 50.7031C94.9531 53.2969 95.4375 55.2578 96.4062 56.5859C97.3906 57.8984 98.5078 58.5547 99.7578 58.5547C101.117 58.5547 102.617 57.8672 104.258 56.4922C105.898 55.1172 107.367 53.2656 108.664 50.9375ZM142.32 61.25C139.398 62.2344 136.617 62.7266 133.977 62.7266C131.352 62.7266 129.016 62.125 126.969 60.9219C124.938 59.7031 123.352 58.0625 122.211 56C121.07 53.9219 120.5 51.5625 120.5 48.9219C120.5 44.9531 121.789 41.6562 124.367 39.0312C126.961 36.4062 130.086 35.0938 133.742 35.0938C136.445 35.0938 139.305 35.6016 142.32 36.6172V40.8125C139.273 39.4219 136.547 38.7266 134.141 38.7266C132.547 38.7266 131.047 39.125 129.641 39.9219C128.234 40.7031 127.148 41.9297 126.383 43.6016C125.617 45.2734 125.234 46.9922 125.234 48.7578C125.234 51.1172 125.969 53.3672 127.438 55.5078C128.922 57.6484 131.242 58.7188 134.398 58.7188C135.352 58.7188 136.289 58.6562 137.211 58.5312C138.133 58.3906 139.836 57.8984 142.32 57.0547V61.25ZM171.008 60.9453C168.961 61.8047 167.477 62.3125 166.555 62.4688C165.633 62.6406 164.742 62.7266 163.883 62.7266C162.055 62.7266 160.383 62.375 158.867 61.6719C157.352 60.9688 156.203 59.9297 155.422 58.5547C154.656 57.1797 154.273 55.0547 154.273 52.1797V41.6328H147.734V38H154.273V27.4531H158.633V38H170.281V41.6328H158.633V52.1094C158.633 54.2188 158.883 55.7109 159.383 56.5859C159.883 57.4453 160.547 58.0781 161.375 58.4844C162.219 58.8906 163.211 59.0938 164.352 59.0938C166.461 59.0938 168.68 58.4297 171.008 57.1016V60.9453Z" fill="#86BA90"/>
<path d="M52.544 125.456C53.632 126.032 54.32 126.88 54.608 128C53.968 131.584 53.392 135.152 52.88 138.704C52.368 142.224 51.872 145.184 51.392 147.584C50.912 149.952 50.576 151.728 50.384 152.912C50.224 154.096 50.032 155.28 49.808 156.464L49.52 157.472C49.456 157.824 49.392 158.144 49.328 158.432C49.264 158.752 49.2 159.088 49.136 159.44C48.24 160.464 47.024 160.976 45.488 160.976C43.856 160.976 42.56 160.56 41.6 159.728C41.024 159.28 40.928 158.336 41.312 156.896C41.472 156.32 41.568 155.584 41.6 154.688C41.664 153.76 41.728 152.992 41.792 152.384V152.288C40.832 152.64 39.968 153.104 39.2 153.68C38.432 154.224 37.952 154.576 37.76 154.736C37.568 154.864 37.312 154.976 36.992 155.072C36.672 155.136 36.384 155.184 36.128 155.216C35.52 155.248 35.104 155.344 34.88 155.504C33.024 158.832 31.36 160.688 29.888 161.072C28.96 161.36 28.032 161.424 27.104 161.264C26.176 161.136 25.44 160.592 24.896 159.632C23.872 158.672 24.128 156.048 25.664 151.76C26.496 149.488 27.68 146.768 29.216 143.6C30.784 140.4 32.288 137.616 33.728 135.248C36.832 130.16 40.24 125.872 43.952 122.384C44.56 122.128 45.216 121.84 45.92 121.52C46.624 121.168 47.312 120.976 47.984 120.944C48.688 120.912 49.408 120.992 50.144 121.184C50.88 121.376 51.504 121.664 52.016 122.048C53.2 122.944 53.376 124.08 52.544 125.456ZM42.272 138.08C41.6 140 40.928 141.776 40.256 143.408C39.584 145.008 39.008 146.416 38.528 147.632L42.32 147.488C42.576 145.44 42.864 143.408 43.184 141.392C43.504 139.376 43.808 137.36 44.096 135.344L42.272 138.08ZM40.976 147.68C41.424 147.68 41.872 147.648 42.32 147.584V147.536C41.904 147.568 41.52 147.6 41.168 147.632C40.816 147.664 40.752 147.68 40.976 147.68Z" fill="#86BA90"/>
<path d="M84.6641 156.25C81.7422 157.234 78.9609 157.727 76.3203 157.727C73.6953 157.727 71.3594 157.125 69.3125 155.922C67.2812 154.703 65.6953 153.062 64.5547 151C63.4141 148.922 62.8438 146.562 62.8438 143.922C62.8438 139.953 64.1328 136.656 66.7109 134.031C69.3047 131.406 72.4297 130.094 76.0859 130.094C78.7891 130.094 81.6484 130.602 84.6641 131.617V135.812C81.6172 134.422 78.8906 133.727 76.4844 133.727C74.8906 133.727 73.3906 134.125 71.9844 134.922C70.5781 135.703 69.4922 136.93 68.7266 138.602C67.9609 140.273 67.5781 141.992 67.5781 143.758C67.5781 146.117 68.3125 148.367 69.7812 150.508C71.2656 152.648 73.5859 153.719 76.7422 153.719C77.6953 153.719 78.6328 153.656 79.5547 153.531C80.4766 153.391 82.1797 152.898 84.6641 152.055V156.25ZM113.352 155.945C111.305 156.805 109.82 157.312 108.898 157.469C107.977 157.641 107.086 157.727 106.227 157.727C104.398 157.727 102.727 157.375 101.211 156.672C99.6953 155.969 98.5469 154.93 97.7656 153.555C97 152.18 96.6172 150.055 96.6172 147.18V136.633H90.0781V133H96.6172V122.453H100.977V133H112.625V136.633H100.977V147.109C100.977 149.219 101.227 150.711 101.727 151.586C102.227 152.445 102.891 153.078 103.719 153.484C104.562 153.891 105.555 154.094 106.695 154.094C108.805 154.094 111.023 153.43 113.352 152.102V155.945ZM127.625 157V134.453H120.359V130.82H131.984V153.367H139.273V157H127.625ZM126.898 121.375C126.898 120.391 127.234 119.656 127.906 119.172C128.578 118.688 129.211 118.445 129.805 118.445C130.414 118.445 131.055 118.688 131.727 119.172C132.398 119.656 132.734 120.391 132.734 121.375C132.734 122.344 132.398 123.07 131.727 123.555C131.055 124.039 130.414 124.281 129.805 124.281C129.211 124.281 128.578 124.039 127.906 123.555C127.234 123.07 126.898 122.344 126.898 121.375ZM159.898 157.727C156.148 157.727 153.148 156.422 150.898 153.812C148.648 151.188 147.523 147.883 147.523 143.898C147.523 139.914 148.648 136.617 150.898 134.008C153.148 131.398 156.148 130.094 159.898 130.094C163.633 130.094 166.625 131.398 168.875 134.008C171.125 136.617 172.25 139.914 172.25 143.898C172.25 147.883 171.125 151.188 168.875 153.812C166.625 156.422 163.633 157.727 159.898 157.727ZM159.898 154.094C162.227 154.094 164.078 153.188 165.453 151.375C166.828 149.562 167.516 147.07 167.516 143.898C167.516 140.742 166.828 138.258 165.453 136.445C164.078 134.633 162.227 133.727 159.898 133.727C157.555 133.727 155.695 134.633 154.32 136.445C152.945 138.258 152.258 140.742 152.258 143.898C152.258 147.07 152.945 149.562 154.32 151.375C155.695 153.188 157.555 154.094 159.898 154.094ZM177.945 157V130.82H182.305V136.539C183.555 134.523 185.062 132.945 186.828 131.805C188.594 130.664 190.359 130.094 192.125 130.094C193.672 130.094 195.078 130.508 196.344 131.336C197.609 132.148 198.492 133.219 198.992 134.547C199.508 135.875 199.766 138.484 199.766 142.375V157H195.406V141.836C195.406 139.32 195.281 137.664 195.031 136.867C194.797 136.055 194.352 135.391 193.695 134.875C193.055 134.359 192.352 134.102 191.586 134.102C190.055 134.102 188.406 134.828 186.641 136.281C184.891 137.734 183.445 139.555 182.305 141.742V157H177.945ZM207.078 155.617V151C208.828 152.141 210.68 152.945 212.633 153.414C214.586 153.867 216.242 154.094 217.602 154.094C219.805 154.094 221.391 153.742 222.359 153.039C223.328 152.32 223.812 151.43 223.812 150.367C223.812 149.664 223.586 149.062 223.133 148.562C222.68 148.062 221.555 147.445 219.758 146.711L218.258 146.102L215.234 144.906C211.984 143.641 209.938 142.469 209.094 141.391C208.234 140.328 207.805 139.031 207.805 137.5C207.805 135.344 208.633 133.57 210.289 132.18C211.961 130.789 214.664 130.094 218.398 130.094C221.195 130.094 223.844 130.5 226.344 131.312V135.273C223.469 134.242 220.766 133.727 218.234 133.727C216.391 133.727 214.945 134.055 213.898 134.711C212.867 135.352 212.352 136.156 212.352 137.125C212.352 138.062 212.805 138.812 213.711 139.375C214.602 139.938 216.055 140.586 218.07 141.32L221.023 142.398C223.727 143.383 225.625 144.453 226.719 145.609C227.812 146.766 228.359 148.211 228.359 149.945C228.359 152.211 227.484 154.078 225.734 155.547C224 157 221.219 157.727 217.391 157.727C214.047 157.727 210.609 157.023 207.078 155.617Z" fill="#86BA90"/>
<path d="M52.544 76.456C53.632 77.032 54.32 77.88 54.608 79C53.968 82.584 53.392 86.152 52.88 89.704C52.368 93.224 51.872 96.184 51.392 98.584C50.912 100.952 50.576 102.728 50.384 103.912C50.224 105.096 50.032 106.28 49.808 107.464L49.52 108.472C49.456 108.824 49.392 109.144 49.328 109.432C49.264 109.752 49.2 110.088 49.136 110.44C48.24 111.464 47.024 111.976 45.488 111.976C43.856 111.976 42.56 111.56 41.6 110.728C41.024 110.28 40.928 109.336 41.312 107.896C41.472 107.32 41.568 106.584 41.6 105.688C41.664 104.76 41.728 103.992 41.792 103.384V103.288C40.832 103.64 39.968 104.104 39.2 104.68C38.432 105.224 37.952 105.576 37.76 105.736C37.568 105.864 37.312 105.976 36.992 106.072C36.672 106.136 36.384 106.184 36.128 106.216C35.52 106.248 35.104 106.344 34.88 106.504C33.024 109.832 31.36 111.688 29.888 112.072C28.96 112.36 28.032 112.424 27.104 112.264C26.176 112.136 25.44 111.592 24.896 110.632C23.872 109.672 24.128 107.048 25.664 102.76C26.496 100.488 27.68 97.768 29.216 94.6C30.784 91.4 32.288 88.616 33.728 86.248C36.832 81.16 40.24 76.872 43.952 73.384C44.56 73.128 45.216 72.84 45.92 72.52C46.624 72.168 47.312 71.976 47.984 71.944C48.688 71.912 49.408 71.992 50.144 72.184C50.88 72.376 51.504 72.664 52.016 73.048C53.2 73.944 53.376 75.08 52.544 76.456ZM42.272 89.08C41.6 91 40.928 92.776 40.256 94.408C39.584 96.008 39.008 97.416 38.528 98.632L42.32 98.488C42.576 96.44 42.864 94.408 43.184 92.392C43.504 90.376 43.808 88.36 44.096 86.344L42.272 89.08ZM40.976 98.68C41.424 98.68 41.872 98.648 42.32 98.584V98.536C41.904 98.568 41.52 98.6 41.168 98.632C40.816 98.664 40.752 98.68 40.976 98.68Z" fill="#86BA90"/>
<path d="M66.6641 87.7031C68.0078 85.5156 69.6094 83.8672 71.4688 82.7578C73.3281 81.6484 75.0391 81.0938 76.6016 81.0938C78.7891 81.0938 80.7578 82.0391 82.5078 83.9297C84.2578 85.8203 85.1328 88.6875 85.1328 92.5312C85.1328 95.5625 84.5469 98.2734 83.375 100.664C82.2188 103.039 80.6719 104.922 78.7344 106.312C76.7969 107.688 74.3984 108.375 71.5391 108.375C70.7266 108.375 69.4766 108.289 67.7891 108.117C67.5391 108.086 67.1641 108.047 66.6641 108V118.172H62.3047V81.8203H66.6641V87.7031ZM66.6641 92.8828V104.109C68.2422 104.516 69.6953 104.719 71.0234 104.719C73.6641 104.719 75.8828 103.688 77.6797 101.625C79.4922 99.5469 80.3984 96.7109 80.3984 93.1172C80.3984 90.5078 79.9062 88.5469 78.9219 87.2344C77.9375 85.9219 76.8203 85.2656 75.5703 85.2656C74.2109 85.2656 72.7109 85.9531 71.0703 87.3281C69.4453 88.7031 67.9766 90.5547 66.6641 92.8828ZM95.4922 87.7031C96.8359 85.5156 98.4375 83.8672 100.297 82.7578C102.156 81.6484 103.867 81.0938 105.43 81.0938C107.617 81.0938 109.586 82.0391 111.336 83.9297C113.086 85.8203 113.961 88.6875 113.961 92.5312C113.961 95.5625 113.375 98.2734 112.203 100.664C111.047 103.039 109.5 104.922 107.562 106.312C105.625 107.688 103.227 108.375 100.367 108.375C99.5547 108.375 98.3047 108.289 96.6172 108.117C96.3672 108.086 95.9922 108.047 95.4922 108V118.172H91.1328V81.8203H95.4922V87.7031ZM95.4922 92.8828V104.109C97.0703 104.516 98.5234 104.719 99.8516 104.719C102.492 104.719 104.711 103.688 106.508 101.625C108.32 99.5469 109.227 96.7109 109.227 93.1172C109.227 90.5078 108.734 88.5469 107.75 87.2344C106.766 85.9219 105.648 85.2656 104.398 85.2656C103.039 85.2656 101.539 85.9531 99.8984 87.3281C98.2734 88.7031 96.8047 90.5547 95.4922 92.8828Z" fill="#86BA90"/>
<rect x="11.5" y="11.5" width="231" height="165" stroke="#86BA90" stroke-width="5"/>
</svg>
